<svg
  version="1.1"
  id="Layer_1"
  xmlns="http://www.w3.org/2000/svg"
  xmlns:xlink="http://www.w3.org/1999/xlink"
  viewBox="0 0 64 64"
  enable-background="new 0 0 64 64"
  xml:space="preserve"
>
  <path
    fill="#D6A570"
    d="M32,2c-12.3,0-22,9.7-22,22s9.7,22,22,22s22-9.7,22-22S44.3,2,32,2z"
  />
  <path
    fill="#B3895A"
    d="M32,0c-13.3,0-24,10.7-24,24s10.7,24,24,24s24-10.7,24-24S45.3,0,32,0z M32,44
    c-11,0-20-9-20-20S21,4,32,4s20,9,20,20S43,44,32,44z"
  />
  <circle fill="#FFFFFF" cx="22" cy="22" r="2" />
  <circle fill="#FFFFFF" cx="42" cy="22" r="2" />
  <circle fill="#FFFFFF" cx="32" cy="32" r="2" />
  <circle fill="#FFFFFF" cx="24" cy="36" r="1.5" />
  <circle fill="#FFFFFF" cx="40" cy="36" r="1.5" />
</svg>
